# xmcd
#
# Track frame offsets:
#	150
#	25747
#	58681
#	95907
#	124769
#	160163
#
# Disc length: 2561 seconds
#
# Revision: 1
# Processed by: cddbd v1.5.1PL0 Copyright (c) Steve Scherf et al.
# Submitted via: EasyCDDAExtractor 5.1.0
#
DISCID=4a09ff06
DTITLE=Dio - Glasgow 10-08-04 Disc 2
DYEAR=2004
DGENRE=Hard Rock
TTITLE0=Holy Diver
TTITLE1=Heaven and Hell
TTITLE2=The Last In Line
TTITLE3=Rainbow In The Dark
TTITLE4=We Rock
TTITLE5=Neon Knights
EXTD=
EXTT0=
EXTT1=
EXTT2=
EXTT3=
EXTT4=
EXTT5=
PLAYORDER=
